<svg xmlns="http://www.w3.org/2000/svg" width="91" height="30" viewBox="0 0 91 30" fill="none">
<path d="M38.3086 10.082C37.6055 10.082 36.9609 10.2578 36.3516 10.5859C35.7422 10.9141 35.2148 11.3945 34.7695 12.0039H34.7344V10.2812H31.5938V22H34.7344V16.5625C34.7344 15.6719 34.9922 14.9336 35.5195 14.3594C36.0469 13.7969 36.7852 13.5039 37.7227 13.5039C37.957 13.5039 38.2383 13.5156 38.5547 13.5391V10.0938C38.5078 10.0938 38.4258 10.082 38.3086 10.082ZM47.6114 10.2812V11.6055H47.5645C46.6856 10.5977 45.5372 10.082 44.1075 10.082C43.3341 10.082 42.5958 10.2344 41.9161 10.5391C41.2364 10.8438 40.6505 11.2656 40.1583 11.793C39.6661 12.332 39.2911 12.9766 39.0098 13.7266C38.7286 14.4883 38.588 15.3086 38.588 16.1758C38.588 17.0664 38.7286 17.8984 39.0098 18.6484C39.2911 19.3984 39.6778 20.043 40.17 20.5586C40.6622 21.0742 41.2598 21.4844 41.9513 21.7656C42.6427 22.0586 43.3927 22.1992 44.2013 22.1992C45.7013 22.1992 46.8614 21.6602 47.7052 20.582H47.7638V22H50.752V10.2812H47.6114ZM44.7755 19.3867C43.8848 19.3867 43.17 19.0938 42.6075 18.4961C42.045 17.9102 41.7755 17.1367 41.7755 16.1875C41.7755 15.2031 42.0567 14.418 42.6309 13.8086C43.2052 13.2109 43.92 12.9062 44.7872 12.9062C45.6309 12.9062 46.3341 13.2227 46.8966 13.8438C47.4591 14.4766 47.7403 15.25 47.7403 16.1875C47.7403 17.1367 47.4473 17.9102 46.8848 18.4961C46.3106 19.0938 45.6075 19.3867 44.7755 19.3867ZM59.4923 10.082C57.9923 10.082 56.8088 10.5977 55.9416 11.6289H55.8947V10.2812H52.7541V26.7461H55.8947V20.6875H55.9416C56.7736 21.6953 57.922 22.1992 59.3986 22.1992C60.1955 22.1992 60.9455 22.0586 61.6369 21.7656C62.3283 21.4844 62.9259 21.0742 63.4181 20.5586C63.9103 20.043 64.3088 19.3984 64.59 18.6484C64.8713 17.8984 65.0119 17.0664 65.0119 16.1758C65.0119 15.4727 64.9181 14.8164 64.7423 14.1836C64.5548 13.5508 64.297 12.9883 63.9689 12.4961C63.6408 12.0039 63.2423 11.5703 62.797 11.207C62.34 10.8438 61.8244 10.5625 61.2619 10.375C60.6994 10.1875 60.1017 10.082 59.4923 10.082ZM58.8244 19.3867C58.2502 19.3867 57.7345 19.2578 57.2658 19C56.797 18.7422 56.4338 18.3555 56.1642 17.8633C55.8947 17.3711 55.7658 16.8203 55.7658 16.1875C55.7658 15.7305 55.8361 15.2969 55.9884 14.8867C56.1408 14.4883 56.3517 14.1367 56.6213 13.8438C56.8791 13.5625 57.2072 13.3281 57.5822 13.1641C57.9572 13 58.3791 12.9062 58.8244 12.9062C59.6798 12.9062 60.3947 13.2109 60.9689 13.8086C61.5314 14.418 61.8244 15.2031 61.8244 16.1875C61.8244 17.1367 61.5431 17.9102 60.9806 18.4961C60.4181 19.0938 59.7033 19.3867 58.8244 19.3867ZM73.4123 10.2812L70.7287 17.5352H70.6936L67.8225 10.2812H64.5412L69.2287 21.2734L67.1428 26.7461H70.3537L76.6702 10.2812H73.4123ZM85.5394 4.32812V11.6055H85.4808C84.5902 10.5977 83.4183 10.082 81.9417 10.082C81.1683 10.082 80.43 10.2344 79.7503 10.5391C79.0706 10.8438 78.4847 11.2656 77.9925 11.793C77.5003 12.332 77.1253 12.9766 76.8441 13.7266C76.5628 14.4883 76.4222 15.3086 76.4222 16.1758C76.4222 16.6914 76.4691 17.1836 76.5628 17.6523C76.6566 18.1211 76.7855 18.5547 76.9613 18.9531C77.137 19.3516 77.348 19.7266 77.6058 20.0664C77.8519 20.418 78.1331 20.7109 78.4613 20.9688C78.7777 21.2266 79.1175 21.4492 79.4925 21.6367C79.8675 21.8242 80.2659 21.9648 80.6995 22.0586C81.1214 22.1523 81.5667 22.1992 82.0355 22.1992C83.5706 22.1992 84.7659 21.6602 85.6214 20.582H85.6917V22H88.68V4.32812H85.5394ZM82.6097 19.3867C81.7191 19.3867 81.0042 19.0938 80.4417 18.4961C79.8792 17.9102 79.6097 17.1367 79.6097 16.1875C79.6097 15.2031 79.8909 14.418 80.4652 13.8086C81.0394 13.2109 81.7542 12.9062 82.6214 12.9062C83.512 12.9062 84.2386 13.2227 84.8245 13.8438C85.4105 14.4766 85.7034 15.25 85.7034 16.1875C85.7034 16.8203 85.5628 17.3711 85.2816 17.8633C85.0003 18.3555 84.637 18.7422 84.1683 19C83.6995 19.2578 83.1722 19.3867 82.6097 19.3867Z" fill="#000"/>
<path d="M21.8645 8.67666C21.6568 8.67666 21.4492 8.60432 21.2823 8.45499C19.2663 6.65716 16.6798 5.66666 14 5.66666C11.3202 5.66666 8.73367 6.65716 6.71767 8.45499C6.35717 8.77466 5.803 8.74666 5.48217 8.38382C5.16017 8.02332 5.19167 7.46916 5.55334 7.14832C7.89017 5.06466 10.8897 3.91666 14 3.91666C17.1103 3.91666 20.1098 5.06466 22.4467 7.14832C22.8083 7.47032 22.8398 8.02332 22.5178 8.38382C22.3452 8.57749 22.1048 8.67666 21.8645 8.67666Z" fill="#000"/>
<path d="M23.0428 13.1228C22.764 13.1228 22.4898 12.9898 22.3207 12.7425C20.4237 9.97984 17.3133 8.33017 14 8.33017C10.6867 8.33017 7.57634 9.97984 5.67934 12.7437C5.40634 13.1403 4.86384 13.2465 4.46251 12.97C4.06467 12.697 3.96317 12.1522 4.23734 11.7543C6.45984 8.51334 10.1092 6.58017 14 6.58017C17.8908 6.58017 21.5402 8.5145 23.7627 11.7532C24.0357 12.151 23.9342 12.6958 23.5375 12.9688C23.3858 13.0738 23.212 13.1228 23.0428 13.1228Z" fill="#000"/>
<path d="M11.8032 26.0833C11.5815 26.0833 11.3587 25.9993 11.1883 25.8313C11.0343 25.6797 7.41417 22.063 7.41417 18.5513C7.41417 14.8868 10.3682 11.906 14.0012 11.906C17.6342 11.906 20.5882 14.8868 20.5882 18.5513C20.5882 19.0343 20.1962 19.4263 19.7132 19.4263C19.2302 19.4263 18.8382 19.0343 18.8382 18.5513C18.8382 15.8528 16.6693 13.656 14.0012 13.656C11.333 13.656 9.16417 15.8517 9.16417 18.5513C9.16417 21.3303 12.3877 24.555 12.4192 24.5865C12.7622 24.9272 12.7657 25.4802 12.4262 25.8243C12.2547 25.997 12.0295 26.0833 11.8032 26.0833Z" fill="#000"/>
<path d="M16.1968 26.0833C14.4725 26.0833 10.4778 22.8878 10.0917 19.3283C9.95399 18.045 10.3495 16.7768 11.1767 15.8505C11.9093 15.0292 12.9045 14.5742 13.9802 14.5683C15.0675 14.5905 16.0265 14.9708 16.7755 15.7163C17.5338 16.47 17.9515 17.4768 17.9515 18.5502V18.9935C17.9515 19.9793 18.7425 20.782 19.7132 20.782C20.6838 20.782 21.4748 19.9793 21.4748 18.9935V18.8383C21.4748 14.7037 18.4112 11.2632 14.5005 11.0088C12.4133 10.8688 10.4417 11.5817 8.92266 13.0038C7.40015 14.4307 6.52632 16.4525 6.52632 18.5502C6.52632 20.3037 7.13416 22.0117 8.23549 23.3603C8.54116 23.7348 8.48516 24.2855 8.11182 24.5912C7.73732 24.898 7.18665 24.8408 6.87982 24.4675C5.52415 22.8073 4.77632 20.705 4.77632 18.5502C4.77632 15.9695 5.85199 13.4822 7.72566 11.7263C9.60166 9.96932 12.054 9.09432 14.6113 9.26232C19.4402 9.57849 23.2213 13.7843 23.2213 18.8383V18.9935C23.2213 20.9442 21.6452 22.532 19.7097 22.532C17.7742 22.532 16.198 20.9453 16.198 18.9935V18.5502C16.198 17.9458 15.9635 17.38 15.5388 16.9565C15.1258 16.5447 14.5787 16.3183 13.9988 16.3183C13.9942 16.3183 13.9907 16.3183 13.9872 16.3183C13.2522 16.3218 12.7622 16.6998 12.4798 17.016C11.9887 17.5667 11.746 18.36 11.83 19.1405C12.1217 21.818 15.3452 24.3333 16.1968 24.3333C16.6798 24.3333 17.0718 24.7253 17.0718 25.2083C17.0718 25.6913 16.6798 26.0833 16.1968 26.0833Z" fill="#000"/>
<path d="M18.7787 24.7521C16.1933 24.7521 13.0702 21.7876 13.0702 18.1068C13.0702 17.6238 13.4622 17.2318 13.9452 17.2318C14.4282 17.2318 14.8202 17.6238 14.8202 18.1068C14.8202 20.8088 17.2153 23.0021 18.7787 23.0021C19.2617 23.0021 19.6537 23.3941 19.6537 23.8771C19.6537 24.3601 19.2617 24.7521 18.7787 24.7521Z" fill="#000"/>
</svg>